HIERARCHY
ROOT joint_Root
{
	OFFSET 0.0 0.0 0.0
	CHANNELS 6 Xposition Yposition Zposition Zrotation Xrotation Yrotation 
	JOINT Hips
	{
		OFFSET 4.5925 91.4895 -427.239
		CHANNELS 6 Xposition Yposition Zposition Zrotation Xrotation Yrotation 
		JOINT Spine
		{
			OFFSET 15.7357 0.0 0.0
			CHANNELS 6 Xposition Yposition Zposition Zrotation Xrotation Yrotation 
			JOINT Chest
			{
				OFFSET 8.98455 -0.406207 0.0
				CHANNELS 6 Xposition Yposition Zposition Zrotation Xrotation Yrotation 
				JOINT Neck
				{
					OFFSET 16.3773 0.0 0.0
					CHANNELS 6 Xposition Yposition Zposition Zrotation Xrotation Yrotation 
					JOINT Head
					{
						OFFSET 6.45672 0.0 0.0
						CHANNELS 6 Xposition Yposition Zposition Zrotation Xrotation Yrotation 
						End Site
						{
							OFFSET 0.0 0.0 0.0
						}
					}
				}
				JOINT Shoulder_L
				{
					OFFSET 12.9942 -0.242716 4.98039
					CHANNELS 6 Xposition Yposition Zposition Zrotation Xrotation Yrotation 
					JOINT UpperArm_L
					{
						OFFSET 5.34809 0.0 0.0
						CHANNELS 6 Xposition Yposition Zposition Zrotation Xrotation Yrotation 
						JOINT LowerArm_L
						{
							OFFSET 24.3286 1.87007e-05 0.0
							CHANNELS 6 Xposition Yposition Zposition Zrotation Xrotation Yrotation 
							JOINT Hand_L
							{
								OFFSET 22.2916 0.0 0.0
								CHANNELS 6 Xposition Yposition Zposition Zrotation Xrotation Yrotation 
								End Site
								{
									OFFSET 0.0 0.0 0.0
								}
							}
						}
					}
				}
				JOINT Shoulder_R
				{
					OFFSET 12.9945 -0.242716 -4.98039
					CHANNELS 6 Xposition Yposition Zposition Zrotation Xrotation Yrotation 
					JOINT UpperArm_R
					{
						OFFSET -5.34813 0.0 0.0
						CHANNELS 6 Xposition Yposition Zposition Zrotation Xrotation Yrotation 
						JOINT LowerArm_R
						{
							OFFSET -24.3289 0.000322201 0.0
							CHANNELS 6 Xposition Yposition Zposition Zrotation Xrotation Yrotation 
							JOINT Hand_R
							{
								OFFSET -22.2915 -0.000108084 0.0
								CHANNELS 6 Xposition Yposition Zposition Zrotation Xrotation Yrotation 
								End Site
								{
									OFFSET 0.0 0.0 0.0
								}
							}
						}
					}
				}
			}
		}
		JOINT UpperLeg_L
		{
			OFFSET -2.19248 -6.46944 0.0
			CHANNELS 6 Xposition Yposition Zposition Zrotation Xrotation Yrotation 
			JOINT LowerLeg_L
			{
				OFFSET 39.0811 0.0 -1.23785e-05
				CHANNELS 6 Xposition Yposition Zposition Zrotation Xrotation Yrotation 
				JOINT Foot_L
				{
					OFFSET 40.9854 0.0 -1.26872e-05
					CHANNELS 6 Xposition Yposition Zposition Zrotation Xrotation Yrotation 
					JOINT Toes_L
					{
						OFFSET 11.7543 0.0 0.0
						CHANNELS 6 Xposition Yposition Zposition Zrotation Xrotation Yrotation 
						End Site
						{
							OFFSET 0.0 0.0 0.0
						}
					}
				}
			}
		}
		JOINT UpperLeg_R
		{
			OFFSET -2.19251 6.46944 0.0
			CHANNELS 6 Xposition Yposition Zposition Zrotation Xrotation Yrotation 
			JOINT LowerLeg_R
			{
				OFFSET -39.0811 -0.00228153 -0.0401928
				CHANNELS 6 Xposition Yposition Zposition Zrotation Xrotation Yrotation 
				JOINT Foot_R
				{
					OFFSET -40.9854 0.0 0.0
					CHANNELS 6 Xposition Yposition Zposition Zrotation Xrotation Yrotation 
					JOINT Toes_R
					{
						OFFSET -11.7543 0.0 0.0
						CHANNELS 6 Xposition Yposition Zposition Zrotation Xrotation Yrotation 
						End Site
						{
							OFFSET 0.0 0.0 0.0
						}
					}
				}
			}
		}
	}
}
MOTION
Frames:	4
Frame Time:	0.0333333
0.000000 0.000000 0.000000 0.000000 0.000000 -0.000000 3.150510 81.938600 1.434220 89.103500 -13.128700 11.913500 15.735700 0.000005 -0.000001 97.378100 80.533600 -97.066900 8.984550 -0.406207 -0.000000 11.010500 2.421880 0.388595 16.377300 -0.000001 -0.000001 5.794150 -1.967080 1.117570 6.456720 -0.000001 -0.000000 6.298910 -3.375640 8.371590 12.994200 -0.242716 4.980390 -92.066400 5.564580 -69.590100 5.348090 -0.000007 -0.000001 -71.012300 29.375700 -7.818540 24.328600 0.000019 0.000005 5.615300 14.077500 -22.005800 22.291600 -0.000001 0.000005 12.002000 5.327740 -0.746635 12.994500 -0.242716 -4.980390 88.734200 7.284240 -80.114600 -5.348130 -0.000001 -0.000004 -61.628100 34.167000 -13.732300 -24.328900 0.000322 -0.000009 -1.473820 -3.090700 -25.488200 -22.291500 -0.000108 -0.000004 21.157400 5.418860 -3.558020 -2.192480 -6.469440 -0.000000 -174.884000 -19.926300 -10.332800 39.081100 -0.000007 -0.000012 -0.439664 0.236074 61.767800 40.985400 -0.000006 -0.000013 2.116220 0.460359 -89.031300 11.754300 -0.000000 0.000003 -0.000448 -0.003637 -16.711100 -2.192510 6.469440 -0.000001 173.562000 8.351910 165.228000 -39.081100 -0.002282 -0.040193 0.038491 -0.018068 62.901100 -40.985400 0.000008 0.000006 6.398070 10.558300 -85.507900 -11.754300 -0.000006 -0.000006 -1.145660 -1.413900 -17.321800
0.000000 0.000000 0.000000 0.000000 0.000000 -0.000000 3.876800 83.675300 2.013440 89.473400 -16.381200 11.614300 15.735700 0.000005 -0.000001 94.476000 81.003600 -93.429200 8.984550 -0.406207 -0.000000 10.161900 1.416940 1.966430 16.377300 -0.000001 -0.000001 6.810090 -1.377590 1.065670 6.456720 -0.000001 -0.000000 6.772230 -1.821730 6.332980 12.994200 -0.242716 4.980390 -91.829800 4.868220 -69.370300 5.348090 -0.000007 -0.000001 -68.102600 29.950800 -8.113620 24.328600 0.000019 0.000005 6.642080 16.003900 -22.889300 22.291600 -0.000001 0.000005 9.088570 5.384490 -2.441200 12.994500 -0.242716 -4.980390 88.647900 7.198470 -79.332500 -5.348130 -0.000001 -0.000004 -62.015100 33.169000 -14.258200 -24.328900 0.000322 -0.000009 -1.074300 -2.440500 -23.746800 -22.291500 -0.000108 -0.000004 21.067300 5.402030 -3.003510 -2.192480 -6.469440 -0.000000 -176.070000 -20.693000 -7.529800 39.081100 -0.000007 -0.000012 -0.442763 0.296330 56.207600 40.985400 -0.000006 -0.000013 1.262710 -1.915310 -86.854800 11.754300 -0.000000 0.000003 -0.000413 -0.003396 -16.702600 -2.192510 6.469440 -0.000001 173.142000 5.961400 166.906000 -39.081100 -0.002282 -0.040193 0.016975 -0.008619 57.941500 -40.985400 0.000008 0.000006 5.861750 11.930300 -82.905900 -11.754300 -0.000006 -0.000006 -1.046030 -1.284880 -17.465400
0.000000 0.000000 0.000000 0.000000 0.000000 -0.000000 4.387470 85.752500 2.392810 89.623100 -18.512300 10.440200 15.735700 0.000005 -0.000001 91.573600 81.828700 -89.666400 8.984550 -0.406207 -0.000000 8.565700 0.459967 3.776500 16.377300 -0.000001 -0.000001 8.770220 -0.886519 0.575516 6.456720 -0.000001 -0.000000 7.257340 -0.813714 3.821920 12.994200 -0.242716 4.980390 -91.115400 2.889150 -68.879700 5.348090 -0.000007 -0.000001 -60.909600 25.696000 -12.992400 24.328600 0.000019 0.000005 9.124390 19.698700 -25.477200 22.291600 -0.000001 0.000005 9.737180 5.379520 -2.281210 12.994500 -0.242716 -4.980390 88.639700 6.645500 -78.403200 -5.348130 -0.000001 -0.000004 -63.814400 30.754200 -11.701600 -24.328900 0.000322 -0.000009 -0.984235 -2.119170 -24.892600 -22.291500 -0.000108 -0.000004 20.549400 5.408420 -3.214870 -2.192480 -6.469440 -0.000000 -177.133000 -21.347300 -5.244520 39.081100 -0.000007 -0.000012 -0.359600 0.309942 49.242500 40.985400 -0.000006 -0.000013 0.972746 -3.305970 -83.639400 11.754300 -0.000000 0.000003 -0.000374 -0.003130 -16.693300 -2.192510 6.469440 -0.000001 172.884000 5.314880 168.666000 -39.081100 -0.002282 -0.040193 0.004628 -0.001108 51.374000 -40.985400 0.000008 0.000006 5.361310 13.636000 -79.637700 -11.754300 -0.000006 -0.000006 -0.684647 -0.837406 -17.646000
0.000000 0.000000 0.000000 0.000000 0.000000 -0.000000 4.648750 87.671500 2.502310 89.758700 -19.570300 9.039090 15.735700 0.000005 -0.000001 89.804700 82.793400 -87.075100 8.984550 -0.406207 -0.000000 6.654770 -0.075306 5.457530 16.377300 -0.000001 -0.000001 10.958600 -0.969824 -0.015223 6.456720 -0.000001 -0.000000 8.145940 -0.136929 1.767270 12.994200 -0.242716 4.980390 -90.430100 1.135290 -69.254800 5.348090 -0.000007 -0.000001 -52.759600 12.010700 -19.746500 24.328600 0.000019 0.000005 8.841610 17.299100 -27.617700 22.291600 -0.000001 0.000005 9.641950 5.333060 -0.879465 12.994500 -0.242716 -4.980390 88.590700 6.238090 -77.242300 -5.348130 -0.000001 -0.000004 -64.594000 28.755300 -8.004120 -24.328900 0.000322 -0.000009 -1.678060 -3.256090 -27.261900 -22.291500 -0.000108 -0.000004 19.296900 5.425530 -3.789750 -2.192480 -6.469440 -0.000000 -177.827000 -22.284800 -3.209590 39.081100 -0.000007 -0.000012 -0.274799 0.304307 42.083600 40.985400 -0.000006 -0.000013 1.213780 -3.338170 -80.079700 11.754300 -0.000000 0.000003 -0.000260 -0.002305 -16.663800 -2.192510 6.469440 -0.000001 172.532000 6.451120 170.383000 -39.081100 -0.002282 -0.040193 -0.002303 0.005641 44.629600 -40.985400 0.000008 0.000006 4.929170 15.899400 -76.164400 -11.754300 -0.000006 -0.000006 -0.363677 -0.453398 -17.834800
